<?xml version="1.0" standalone="no"?>
<!DOCTYPE svg PUBLIC "-//W3C//DTD SVG 20010904//EN"
 "http://www.w3.org/TR/2001/REC-SVG-20010904/DTD/svg10.dtd">
<svg version="1.0" xmlns="http://www.w3.org/2000/svg"
 width="1700.000000pt" height="1235.000000pt" viewBox="0 0 1700.000000 1235.000000"
 preserveAspectRatio="xMidYMid meet">

<g transform="translate(0.000000,1235.000000) scale(0.100000,-0.100000)"
fill="#000000" stroke="none">
<path d="M7920 11319 c-696 -32 -1445 -143 -2145 -318 -2521 -630 -4350 -2135
-4705 -3871 -52 -254 -61 -352 -67 -700 -8 -463 14 -738 88 -1084 274 -1295
1195 -2430 2604 -3211 739 -410 1707 -743 2640 -909 751 -134 1373 -187 2175
-187 1055 0 1922 103 2873 342 618 155 1308 417 1832 696 1413 754 2350 1857
2665 3138 43 175 71 331 95 525 22 173 31 757 16 960 -51 664 -301 1302 -739
1885 -207 276 -532 617 -807 846 -1264 1052 -3017 1700 -5060 1868 -358 30
-1048 39 -1465 20z m1080 -279 c944 -43 1926 -218 2785 -497 626 -204 1254
-493 1768 -815 138 -86 292 -189 389 -261 l29 -21 -26 -14 c-52 -27 -304 -121
-455 -170 -262 -85 -527 -144 -840 -189 -180 -25 -779 -26 -960 0 -219 31
-311 48 -490 93 -276 70 -475 142 -862 312 -273 121 -662 238 -958 291 -454
81 -924 63 -1358 -51 -323 -85 -651 -248 -905 -451 l-67 -54 -118 -7 c-163
-10 -298 -36 -577 -111 -550 -147 -612 -158 -895 -159 -187 -1 -230 2 -330 22
-413 83 -944 228 -1480 405 -291 96 -490 169 -490 179 0 8 250 174 387 257
958 576 2106 962 3418 1150 257 37 796 86 1050 94 218 8 785 6 985 -3z m210
-1544 c177 -28 415 -85 579 -138 190 -61 283 -97 516 -200 471 -209 876 -324
1355 -384 173 -21 651 -30 822 -14 264 24 526 69 791 135 215 55 627 199 892
313 l69 30 38 -29 c20 -17 99 -87 175 -158 605 -560 1016 -1226 1174 -1900 25
-108 59 -317 58 -356 -1 -16 -7 5 -14 48 -7 43 -16 81 -19 85 -3 3 -90 -11
-193 -32 -918 -183 -1879 -471 -2766 -830 l-187 -76 -178 153 c-1012 874
-2181 1867 -2487 2114 -194 156 -406 299 -547 369 -294 147 -640 134 -980 -37
-187 -94 -387 -231 -683 -469 -279 -224 -501 -376 -632 -430 -92 -39 -265 -70
-382 -70 -144 1 -316 47 -413 113 -60 40 -75 66 -56 100 7 13 161 195 343 402
348 399 525 577 758 763 360 287 716 436 1198 502 182 24 600 22 769 -4z
m-6029 -274 c453 -169 964 -329 1414 -441 428 -107 662 -141 980 -141 182 0
373 33 610 105 126 39 454 125 475 125 7 0 -43 -57 -111 -127 -68 -71 -250
-264 -404 -431 -318 -344 -347 -384 -346 -492 0 -86 35 -152 125 -237 81 -77
162 -118 318 -162 169 -47 300 -64 462 -59 128 4 150 8 246 40 58 19 130 46
160 60 126 56 321 193 670 468 244 192 540 381 707 450 185 77 372 88 541 31
253 -84 453 -231 1301 -952 359 -304 596 -508 1071 -919 1043 -904 996 -860
1039 -975 15 -41 21 -79 21 -143 0 -75 -4 -95 -28 -147 -83 -175 -333 -294
-537 -256 -115 21 -165 55 -400 267 -239 215 -619 549 -784 688 -123 104 -166
134 -207 142 -26 5 -35 1 -57 -26 -30 -36 -33 -56 -13 -103 8 -19 213 -229
511 -522 512 -503 579 -579 611 -680 51 -161 -78 -378 -287 -484 -116 -58
-218 -78 -322 -63 -134 19 -150 31 -443 317 -570 555 -668 631 -734 565 -33
-33 -26 -78 24 -145 24 -33 193 -229 376 -435 182 -206 341 -393 352 -415 12
-23 23 -68 26 -106 15 -210 -205 -370 -491 -357 -120 6 -146 20 -272 148 -126
128 -421 401 -542 502 -97 81 -143 100 -188 80 -35 -16 -41 -53 -16 -105 27
-56 43 -75 363 -424 148 -160 268 -296 268 -301 0 -24 -59 -77 -114 -103 -188
-89 -427 -73 -698 46 -144 63 -134 49 -104 143 102 325 16 668 -225 898 -152
144 -329 222 -541 240 l-83 6 -2 117 c-5 303 -135 524 -378 648 -121 62 -174
78 -305 94 -113 14 -224 3 -311 -30 l-47 -18 -41 62 c-55 85 -174 194 -253
232 -92 46 -202 80 -323 99 -91 15 -121 16 -203 6 -118 -14 -232 -49 -332
-100 l-75 -39 -78 73 c-88 82 -213 151 -327 181 -195 50 -439 -5 -617 -138
-29 -21 -56 -39 -60 -39 -4 0 -28 14 -53 30 -166 112 -496 280 -775 393 -535
217 -1209 420 -1930 582 -88 19 -222 52 -297 72 -120 32 -138 40 -138 58 0 11
18 89 40 174 191 729 668 1426 1373 2002 l107 88 44 -19 c24 -10 140 -54 257
-98z m12506 -2544 c-2 -18 -4 -6 -4 27 0 33 2 48 4 33 2 -15 2 -42 0 -60z
m-14057 -13 c352 -66 952 -221 1396 -360 523 -165 1024 -378 1272 -541 87 -57
102 -72 97 -89 -41 -139 -47 -182 -42 -290 3 -79 12 -132 30 -188 94 -291 372
-497 677 -501 41 0 92 3 113 7 32 7 37 6 37 -11 0 -10 11 -51 25 -91 85 -251
285 -439 575 -543 57 -20 84 -23 216 -23 l151 0 27 -51 c92 -176 308 -342 513
-395 97 -24 233 -27 326 -5 38 9 70 16 72 16 3 0 14 -19 26 -42 97 -191 283
-361 470 -432 295 -111 601 -62 857 139 l70 55 114 -54 c129 -62 285 -116 409
-142 127 -27 338 -25 452 3 166 43 290 123 357 232 14 22 31 39 38 36 6 -2 49
-12 94 -21 251 -51 534 64 735 300 48 56 123 196 123 230 0 21 4 21 153 21
149 1 154 1 261 38 165 57 276 126 381 238 116 124 177 251 191 402 l7 69 34
-7 c71 -13 221 -6 300 14 239 62 399 166 497 325 123 198 135 441 30 647 l-23
47 127 52 c723 297 1755 615 2657 820 99 22 190 45 203 50 l22 10 0 -138 c-1
-768 -277 -1488 -832 -2162 -132 -160 -435 -464 -608 -610 -835 -702 -1959
-1240 -3205 -1534 -481 -113 -869 -181 -1289 -226 -1121 -120 -2131 -89 -3226
101 -266 46 -667 137 -945 215 -1124 315 -2100 808 -2855 1444 -173 146 -476
450 -608 610 -432 525 -700 1087 -791 1661 -37 229 -50 472 -35 664 l7 80 91
-22 c50 -13 152 -34 226 -48z m3535 -800 c86 -23 141 -53 207 -113 76 -71 113
-146 133 -277 9 -55 18 -101 19 -103 2 -1 27 34 56 78 106 162 260 270 432
305 96 19 124 19 218 0 146 -28 203 -52 279 -113 78 -63 132 -175 147 -305 3
-32 13 -65 21 -73 28 -27 47 -19 175 72 23 17 70 41 103 54 118 45 306 25 446
-45 218 -111 296 -373 208 -700 -29 -109 -33 -143 -19 -160 19 -22 51 -19 166
19 134 45 198 52 294 32 225 -47 401 -210 466 -431 25 -85 23 -239 -5 -325
-41 -129 -130 -246 -245 -321 -171 -112 -408 -123 -598 -28 -125 63 -238 189
-286 320 -11 31 -26 94 -32 140 -6 46 -16 91 -21 101 -16 30 -54 20 -136 -36
-166 -113 -243 -131 -393 -87 -152 43 -270 130 -331 244 -30 57 -33 71 -39
178 -7 159 -27 179 -119 120 -157 -101 -270 -122 -413 -78 -119 38 -193 81
-274 161 -123 123 -167 251 -163 464 3 120 2 125 -20 143 -23 19 -24 19 -50
-2 -127 -99 -229 -141 -344 -140 -229 1 -409 157 -449 389 -24 140 19 278 121
385 119 125 284 174 446 132z"/>
</g>
</svg>
